<svg width="86" height="14" viewBox="0 0 86 14" fill="none" xmlns="http://www.w3.org/2000/svg">
<g clip-path="url(#clip0_696_165)">
<path d="M9.12406 1.81061H7.51405C6.80238 1.81061 6.11987 2.07455 5.61664 2.54436C5.11342 3.01418 4.83071 3.65138 4.83071 4.3158V5.81892H3.2207V7.82308H4.83071V11.8314H6.97738V7.82308H8.58739L9.12406 5.81892H6.97738V4.3158C6.97738 4.18292 7.03392 4.05548 7.13457 3.96152C7.23521 3.86755 7.37172 3.81476 7.51405 3.81476H9.12406V1.81061Z" stroke="#808080" stroke-width="0.920003" stroke-linecap="round" stroke-linejoin="round"/>
</g>
<g clip-path="url(#clip1_696_165)">
<path fill-rule="evenodd" clip-rule="evenodd" d="M29.8001 2.97671C30.0602 2.93519 30.3511 2.92136 30.625 2.96478C31.113 3.04173 31.5652 3.2533 31.9232 3.57223C32.1563 3.577 32.3858 3.53405 32.5887 3.47298C32.7848 3.41327 32.9731 3.33307 33.1499 3.23391L33.1545 3.23105C33.2281 3.18526 33.3164 3.16465 33.4044 3.1727C33.4924 3.18074 33.5748 3.21696 33.6375 3.27521C33.7002 3.33345 33.7393 3.41014 33.7484 3.49228C33.7574 3.57442 33.7358 3.65695 33.6871 3.72588C33.5813 3.87619 33.4336 4.14437 33.2685 4.44499L33.1893 4.58862C33.0947 4.76041 32.9976 4.9341 32.9071 5.08298C32.8504 5.17651 32.7896 5.27147 32.7282 5.35354V5.48429C32.7345 6.26622 32.5739 7.04148 32.2558 7.76484C31.9378 8.4882 31.4685 9.14516 30.8756 9.69739C30.2826 10.2496 29.5777 10.6861 28.8021 10.9812C28.0266 11.2764 27.1958 11.4244 26.3582 11.4166C25.1446 11.4176 23.9565 11.0912 22.9369 10.4765C22.864 10.4325 22.8093 10.3667 22.7816 10.2899C22.754 10.2131 22.7551 10.1298 22.7848 10.0537C22.8145 9.97751 22.871 9.91303 22.945 9.87074C23.0191 9.82846 23.1063 9.81089 23.1924 9.8209C23.8967 9.89949 24.6104 9.79341 25.2537 9.51455C24.9399 9.38134 24.6592 9.18857 24.4295 8.94851C24.1998 8.70846 24.0262 8.42637 23.9197 8.12023C23.8994 8.06162 23.8957 7.99912 23.9089 7.93876C23.922 7.87841 23.9516 7.82224 23.9949 7.77571L24 7.77094C23.7405 7.55513 23.5326 7.2908 23.3897 6.99509C23.2468 6.69939 23.1721 6.37893 23.1704 6.05452V6.02971C23.1704 5.95114 23.1981 5.87475 23.2491 5.81231C23.3002 5.74987 23.3719 5.70486 23.4531 5.68423C23.28 5.36182 23.1902 5.00604 23.1909 4.64541C23.1906 4.23654 23.3051 3.83476 23.5231 3.48013C23.5541 3.42979 23.5977 3.38724 23.6502 3.35615C23.7027 3.32505 23.7625 3.30635 23.8245 3.30165C23.8865 3.29696 23.9488 3.30641 24.0059 3.32919C24.0631 3.35197 24.1135 3.3874 24.1528 3.43242C25.0468 4.46071 26.3277 5.13149 27.7337 5.30773C27.7214 4.87836 27.8375 4.45429 28.0687 4.08297C28.3 3.71166 28.6374 3.40776 29.0431 3.20528C29.2486 3.10316 29.5205 3.02156 29.8006 2.97671H29.8001ZM24.0358 6.57846C24.135 6.83925 24.3051 7.07151 24.5293 7.25252C24.7536 7.43353 25.0243 7.55708 25.3151 7.61108C25.3988 7.62666 25.4746 7.66791 25.5304 7.72829C25.5862 7.78867 25.6188 7.86471 25.623 7.94436C25.6273 8.024 25.6029 8.10268 25.5538 8.16791C25.5046 8.23314 25.4336 8.28119 25.3519 8.30442C25.2128 8.34403 25.0702 8.37123 24.9256 8.38698C25.0826 8.5761 25.2831 8.72998 25.5121 8.83733C25.7412 8.94467 25.9931 9.00275 26.2494 9.00731C26.3284 9.0087 26.4051 9.03288 26.4688 9.07652C26.5326 9.12017 26.5803 9.18116 26.6055 9.25112C26.6307 9.32109 26.6321 9.39661 26.6095 9.46735C26.5869 9.53809 26.5415 9.60058 26.4794 9.64625C25.9464 10.0378 25.3271 10.314 24.666 10.4551C25.2133 10.6186 25.7846 10.7015 26.3593 10.7008H26.3639C27.0999 10.7081 27.8301 10.5783 28.5117 10.3191C29.1934 10.0599 29.8129 9.67647 30.3341 9.1912C30.8552 8.70594 31.2676 8.12857 31.547 7.49283C31.8265 6.8571 31.9674 6.17575 31.9616 5.48858V5.23329C31.9615 5.14639 31.9953 5.06244 32.0566 4.99709C32.0924 4.95939 32.1538 4.87254 32.2406 4.72987C32.3224 4.5953 32.4134 4.43306 32.508 4.26175L32.5248 4.23026C32.2578 4.28635 31.9829 4.30198 31.7106 4.27655C31.6185 4.26718 31.5332 4.22701 31.4704 4.16346C31.2134 3.90324 30.8711 3.73003 30.4972 3.67101C30.3087 3.6461 30.1171 3.65013 29.9299 3.68293C29.7475 3.70945 29.5704 3.7614 29.4045 3.83706C29.07 4.00389 28.8044 4.26964 28.6492 4.59263C28.4939 4.91562 28.4579 5.27757 28.5468 5.62172C28.5608 5.67583 28.5611 5.73225 28.5476 5.78648C28.5342 5.84071 28.5073 5.89127 28.4693 5.93412C28.4312 5.97697 28.383 6.01095 28.3284 6.03334C28.2738 6.05573 28.2144 6.06592 28.1548 6.06311C26.5845 5.98895 25.0998 5.37203 23.9898 4.33238C23.9682 4.43566 23.9574 4.54066 23.9576 4.64588V4.64684C23.957 4.90964 24.026 5.1685 24.1585 5.40037C24.2911 5.63223 24.4829 5.8299 24.7171 5.97578C24.7858 6.01899 24.8377 6.08184 24.865 6.15491C24.8923 6.22797 24.8935 6.30733 24.8684 6.38107C24.8433 6.45482 24.7932 6.51898 24.7258 6.56395C24.6583 6.60891 24.5771 6.63225 24.4942 6.63048C24.34 6.62648 24.1865 6.60939 24.0358 6.57846Z" fill="#808080"/>
</g>
<g clip-path="url(#clip2_696_165)">
<path d="M54.0754 2.90887C54.5561 2.90887 55.0491 2.92042 55.527 2.93932L56.0915 2.96451L56.6318 2.99443L57.1378 3.02645L57.5999 3.06005C58.1015 3.09588 58.5734 3.2957 58.9327 3.62433C59.292 3.95297 59.5157 4.38937 59.5644 4.85677L59.5868 5.07985L59.629 5.55751C59.6684 6.05249 59.6976 6.59208 59.6976 7.10806C59.6976 7.62403 59.6684 8.16363 59.629 8.65861L59.5868 9.13627C59.5795 9.2129 59.5722 9.28691 59.5644 9.35935C59.5157 9.82683 59.2919 10.2633 58.9325 10.5919C58.5731 10.9206 58.101 11.1204 57.5994 11.1561L57.1384 11.1891L56.6324 11.2217L56.0915 11.2516L55.527 11.2768C55.0434 11.2964 54.5594 11.3066 54.0754 11.3072C53.5913 11.3066 53.1073 11.2964 52.6237 11.2768L52.0592 11.2516L51.5189 11.2217L51.0129 11.1891L50.5508 11.1561C50.0493 11.1202 49.5773 10.9204 49.218 10.5918C48.8587 10.2632 48.635 9.82675 48.5864 9.35935L48.5639 9.13627L48.5217 8.65861C48.4787 8.14271 48.4558 7.62551 48.4531 7.10806C48.4531 6.59208 48.4824 6.05249 48.5217 5.55751L48.5639 5.07985C48.5712 5.00322 48.5785 4.92921 48.5864 4.85677C48.635 4.38945 48.8586 3.95311 49.2178 3.62449C49.577 3.29587 50.0488 3.096 50.5502 3.06005L51.0118 3.02645L51.5178 2.99443L52.0587 2.96451L52.6231 2.93932C53.1069 2.9197 53.5911 2.90955 54.0754 2.90887ZM54.0754 3.95867C53.6115 3.95867 53.1342 3.97022 52.6698 3.98807L52.1199 4.01274L51.592 4.0416L51.0961 4.0731L50.6419 4.10617C50.4031 4.12198 50.1781 4.21621 50.0066 4.37215C49.8352 4.52808 49.7284 4.73566 49.7052 4.95808C49.6394 5.59268 49.5776 6.38265 49.5776 7.10806C49.5776 7.83347 49.6394 8.62344 49.7052 9.25804C49.753 9.71575 50.142 10.0716 50.6419 10.11L51.0961 10.1425L51.592 10.174L52.1199 10.2034L52.6698 10.2281C53.1342 10.2459 53.6115 10.2574 54.0754 10.2574C54.5392 10.2574 55.0165 10.2459 55.4809 10.2281L56.0308 10.2034L56.5587 10.1745L57.0546 10.143L57.5089 10.11C57.7476 10.0941 57.9727 9.99991 58.1441 9.84397C58.3156 9.68803 58.4224 9.48046 58.4455 9.25804C58.5113 8.62344 58.5732 7.83347 58.5732 7.10806C58.5732 6.38265 58.5113 5.59268 58.4455 4.95808C58.4224 4.73566 58.3156 4.52808 58.1441 4.37215C57.9727 4.21621 57.7476 4.12198 57.5089 4.10617L57.0546 4.07362L56.5587 4.04213L56.0308 4.01274L55.4809 3.98807C55.0127 3.96926 54.5441 3.95946 54.0754 3.95867ZM52.9509 5.83518C52.9509 5.78388 52.9643 5.73335 52.9899 5.68798C53.0156 5.64261 53.0527 5.60377 53.0981 5.57485C53.1435 5.54593 53.1957 5.5278 53.2503 5.52203C53.3049 5.51626 53.3602 5.52304 53.4114 5.54176L53.4569 5.56276L55.8183 6.83511C55.8653 6.86044 55.9051 6.89599 55.9342 6.93875C55.9634 6.9815 55.9811 7.03019 55.9857 7.08068C55.9904 7.13118 55.982 7.18198 55.9612 7.22879C55.9403 7.27559 55.9077 7.317 55.866 7.34951L55.8183 7.38101L53.4569 8.65388C53.4093 8.67961 53.3557 8.69409 53.3008 8.69605C53.2458 8.69802 53.1912 8.68741 53.1417 8.66516C53.0921 8.64291 53.0491 8.60968 53.0165 8.56838C52.9838 8.52707 52.9625 8.47894 52.9543 8.42818L52.9509 8.38094V5.83518Z" fill="#808080"/>
</g>
<g clip-path="url(#clip3_696_165)">
<path fill-rule="evenodd" clip-rule="evenodd" d="M79.7846 2.98505C78.5189 2.98505 78.3601 2.99007 77.8627 3.01116C77.3665 3.03225 77.0276 3.1059 76.7311 3.21335C76.4201 3.3227 76.1384 3.49407 75.9057 3.71549C75.6685 3.93289 75.4849 4.196 75.3678 4.48645C75.2527 4.76296 75.1742 5.07931 75.1513 5.54262C75.1287 6.00693 75.1233 6.15523 75.1233 7.33694C75.1233 8.51864 75.1287 8.66694 75.1513 9.13126C75.1738 9.59456 75.2527 9.91091 75.3678 10.1874C75.4872 10.4736 75.6464 10.7163 75.9057 10.9584C76.1384 11.1798 76.4201 11.3512 76.7311 11.4605C77.0276 11.5676 77.3665 11.6413 77.8627 11.6627C78.3601 11.6838 78.5189 11.6888 79.7846 11.6888C81.0504 11.6888 81.2092 11.6838 81.7066 11.6627C82.2028 11.6416 82.5417 11.568 82.8378 11.4605C83.1489 11.3512 83.4308 11.1799 83.6636 10.9584C83.9008 10.741 84.0844 10.4779 84.2015 10.1874C84.3162 9.91091 84.3951 9.59456 84.418 9.13126C84.4406 8.66694 84.446 8.51864 84.446 7.33694C84.446 6.15523 84.4406 6.00693 84.418 5.54262C84.3954 5.07931 84.3166 4.76296 84.2011 4.48645C84.0841 4.19603 83.9007 3.93292 83.6636 3.71549C83.4308 3.49402 83.1489 3.32265 82.8378 3.21335C82.5417 3.10623 82.2028 3.03258 81.7066 3.01116C81.2092 2.99007 81.0504 2.98505 79.7846 2.98505ZM79.7846 3.76906C81.0292 3.76906 81.1766 3.77374 81.6682 3.7945C82.1225 3.81391 82.3695 3.88488 82.5338 3.94447C82.7514 4.02347 82.9067 4.11754 83.0698 4.26986C83.233 4.42217 83.3337 4.56713 83.4184 4.77033C83.4822 4.92365 83.5582 5.15396 83.579 5.57844C83.6012 6.03706 83.6062 6.17498 83.6062 7.33694C83.6062 8.49889 83.6012 8.63648 83.579 9.09544C83.5582 9.51991 83.4822 9.75023 83.4184 9.90355C83.3437 10.0926 83.2246 10.2636 83.0698 10.404C82.9194 10.5485 82.7363 10.6597 82.5338 10.7294C82.3695 10.789 82.1225 10.86 81.6682 10.8794C81.177 10.9001 81.0292 10.9048 79.7846 10.9048C78.5401 10.9048 78.3923 10.9001 77.9011 10.8794C77.4464 10.86 77.1997 10.789 77.0355 10.7294C76.833 10.6597 76.6499 10.5485 76.4995 10.404C76.3447 10.2636 76.2256 10.0926 76.1509 9.90355C76.0871 9.75023 76.0111 9.51991 75.9903 9.09544C75.9681 8.63681 75.9631 8.49889 75.9631 7.33694C75.9631 6.17498 75.9681 6.0374 75.9903 5.57844C76.0111 5.15396 76.0871 4.92365 76.1509 4.77033C76.2356 4.56713 76.3363 4.42217 76.4995 4.26986C76.6499 4.12537 76.833 4.01418 77.0355 3.94447C77.1997 3.88488 77.4464 3.81391 77.9011 3.7945C78.3923 3.77374 78.5401 3.76906 79.7846 3.76906Z" fill="#808080"/>
<path fill-rule="evenodd" clip-rule="evenodd" d="M79.8788 4.92683C79.2357 4.92683 78.619 5.1684 78.1643 5.59841C77.7096 6.02842 77.4541 6.61164 77.4541 7.21976C77.4541 7.82788 77.7096 8.4111 78.1643 8.84111C78.619 9.27112 79.2357 9.51269 79.8788 9.51269C80.5219 9.51269 81.1386 9.27112 81.5933 8.84111C82.048 8.4111 82.3035 7.82788 82.3035 7.21976C82.3035 6.61164 82.048 6.02842 81.5933 5.59841C81.1386 5.1684 80.5219 4.92683 79.8788 4.92683ZM79.8788 8.69379C79.4654 8.69379 79.0689 8.53849 78.7766 8.26205C78.4843 7.98562 78.3201 7.6107 78.3201 7.21976C78.3201 6.82882 78.4843 6.4539 78.7766 6.17747C79.0689 5.90103 79.4654 5.74573 79.8788 5.74573C80.2922 5.74573 80.6887 5.90103 80.981 6.17747C81.2733 6.4539 81.4375 6.82882 81.4375 7.21976C81.4375 7.6107 81.2733 7.98562 80.981 8.26205C80.6887 8.53849 80.2922 8.69379 79.8788 8.69379ZM82.8924 4.95958C82.8924 5.02841 82.878 5.09656 82.8502 5.16015C82.8223 5.22374 82.7815 5.28151 82.73 5.33018C82.6786 5.37885 82.6175 5.41745 82.5502 5.44379C82.483 5.47013 82.4109 5.48368 82.3381 5.48368C82.2654 5.48368 82.1933 5.47013 82.126 5.44379C82.0588 5.41745 81.9977 5.37885 81.9462 5.33018C81.8948 5.28151 81.854 5.22374 81.8261 5.16015C81.7983 5.09656 81.7839 5.02841 81.7839 4.95958C81.7839 4.82059 81.8423 4.68728 81.9462 4.58899C82.0502 4.4907 82.1911 4.43549 82.3381 4.43549C82.4851 4.43549 82.6261 4.4907 82.73 4.58899C82.834 4.68728 82.8924 4.82059 82.8924 4.95958Z" fill="#808080"/>
</g>
<defs>
<clipPath id="clip0_696_165">
<rect width="12.88" height="12.0249" fill="white" transform="translate(0 0.808594)"/>
</clipPath>
<clipPath id="clip1_696_165">
<rect width="12.2667" height="11.4523" fill="white" transform="translate(22.1221 1.3811)"/>
</clipPath>
<clipPath id="clip2_696_165">
<rect width="13.4934" height="12.5976" fill="white" transform="translate(47.3311 0.808594)"/>
</clipPath>
<clipPath id="clip3_696_165">
<rect width="12.4303" height="10.8797" fill="white" transform="translate(73.5693 2.25897)"/>
</clipPath>
</defs>
</svg>
